<svg height="349" viewBox="0 0 348 349" width="348" xmlns="http://www.w3.org/2000/svg" xmlns:xlink="http://www.w3.org/1999/xlink"><mask id="a" fill="#fff"><path d="m0 0h210v200h-210z" fill="#fff" fill-rule="evenodd"/></mask><g fill="none" fill-rule="evenodd"><circle cx="174" cy="175" fill="#ed3a4a" r="174"/><path d="m205.922218 191.476104c-46.15187 7.176336-78.973734-35.823416-68.274519-103.9684713 28.88068-11.8875642 52.735849-31.9620177 54.782464-57.1535282.770231-9.4847373-4.089229-23.63851282-19.443844-25.211601-11.507458-1.18534103-20.40013 7.2165169-18.787646 15.4877864.524158 2.7624474 3.314996 3.1200587 4.571374 2.0914238 2.264681-1.8684189 4.443335-2.6760581 7.634294-1.9507901 6.379918 1.4445088 12.455744 14.4450882-4.405324 33.3623274-15.564677 17.4646942-40.618207 31.0438807-67.0441485 35.755109 1.9745934-7.7006986 4.0112055-15.6786464 6.0418155-23.684721 8.214469-32.4240998 18.297499-44.844063 29.898986-52.5769064 5.175555-3.4455252.96429-9.70774213-5.069524-8.04424658l-.104031.07031684c-40.0940495 11.57214294-44.6734257-2.67203995-73.1579863-5.36015232-26.0778372-2.46510754-44.32932237 10.95938186-50.52318382 28.34974116-6.36191196 17.8665047 2.23067039 41.0469535 24.63940492 45.5472313 16.1968677 3.2486381 26.6780176-3.3711902 30.1370572-12.7313662 3.8791658-10.4892636-.226068-17.7901608-4.9454863-20.4280468-6.1498482-3.4214166-15.1865641-2.6398951-19.6659102 4.6107757-4.1072344 6.6399188-3.0669218 15.0558401 2.0706222 19.7831409-17.0511244-.5585166-27.16816487-18.3908675-18.0154142-34.9414427 5.5636721-10.0573173 20.3221075-16.6490189 41.6805264-8.9061302 19.89798 7.218526 31.4494516 5.0929483 48.0704471-2.3988088l.138041-.0984436c-21.6264994 17.9207492-28.2744973 41.4648365-33.7221345 63.4137361-5.3416053 21.5531166-10.1510507 41.7380676-17.1691599 70.0576726-5.3876191 21.741968-16.9290877 27.168419-25.3796274 27.168419-13.0759297 0-17.5552759-15.085976-11.4854517-22.22414 5.9017736 5.862415 16.6390005 2.495243 19.355817-6.089439 2.3747137-7.479702-3.1389433-14.832835-10.9292846-15.891606-9.8429581-1.342047-24.47735623 8.287342-24.7414356 26.179965-.19005712 13.109068 8.4985541 26.073484 26.2478883 28.094591 22.2906991 2.52337 42.5627915-9.444556 50.4831719-38.08561 1.5704719-5.657492 7.0161085-26.370824 13.5500722-51.729086 5.373615-.7513856 12.5037573-2.0592789 20.9502963-4.3114268-6.017809 43.9540528 7.584279 75.3635808 35.484664 93.7886018 17.491257 11.548035 46.377938 13.31801 59.39385 6.760462 2.988898-1.512816 2.308694-5.438505-2.266681-4.735337" fill="#fff" mask="url(#a)" transform="translate(69 75)"/></g></svg>